# xmcd
#
# Track frame offsets:
#	150
#	21298
#	41404
#	62189
#	84965
#	114471
#	129533
#	149097
#	163681
#
# Disc length: 2680 seconds
#
# Revision: 1
# Processed by: cddbd v1.4PL0 Copyright (c) Steve Scherf et al.
# Submitted via: audiograbber 1.81.01
#
DISCID=7a0a7609
DTITLE=Blues Cousins - Moskow Boogie
DYEAR=2003
DGENRE=Blues
TTITLE0=Girl from Russia
TTITLE1=Moskow Boogie
TTITLE2=My baby is coming home
TTITLE3=I'm your Hoochie Coochie man
TTITLE4=Five long years
TTITLE5=Eyes like cat
TTITLE6=All your love
TTITLE7=Long time ago
TTITLE8=Suicider's blues
EXTD=
EXTT0=
EXTT1=
EXTT2=
EXTT3=
EXTT4=
EXTT5=
EXTT6=
EXTT7=
EXTT8=
PLAYORDER=
